<svg xmlns="http://www.w3.org/2000/svg" xmlns:xlink="http://www.w3.org/1999/xlink" version="1.1" width="256" height="256" viewBox="0 0 256 256" xml:space="preserve">
<desc>Created with Fabric.js 1.7.22</desc>
<defs>
</defs>
<g transform="translate(128 128) scale(0.72 0.72)" style="">
	<g style="stroke: none; stroke-width: 0; stroke-dasharray: none; stroke-linecap: butt; stroke-linejoin: miter; stroke-miterlimit: 10; fill: none; fill-rule: nonzero; opacity: 1;" transform="translate(-175.05 -175.05000000000004) scale(3.89 3.89)" >
	<path d="M 70.664 49.046 H 19.336 v -7.943 C 19.336 26.93 30.826 15.44 45 15.44 h 0 c 14.174 0 25.664 11.49 25.664 25.664 V 49.046 z" style="stroke: none; stroke-width: 1; stroke-dasharray: none; stroke-linecap: butt; stroke-linejoin: miter; stroke-miterlimit: 10; fill: rgb(252,207,63); fill-rule: nonzero; opacity: 1;" transform=" matrix(1 0 0 1 0 0) " stroke-linecap="round" />
	<path d="M 70.664 49.046 H 19.336 v 7.943 c 0 14.174 11.49 25.664 25.664 25.664 h 0 c 14.174 0 25.664 -11.49 25.664 -25.664 V 49.046 z" style="stroke: none; stroke-width: 1; stroke-dasharray: none; stroke-linecap: butt; stroke-linejoin: miter; stroke-miterlimit: 10; fill: rgb(249,127,65); fill-rule: nonzero; opacity: 1;" transform=" matrix(1 0 0 1 0 0) " stroke-linecap="round" />
	<path d="M 70.664 50.046 H 19.336 c -0.552 0 -1 -0.447 -1 -1 v -7.942 C 18.336 26.401 30.298 14.44 45 14.44 s 26.664 11.961 26.664 26.664 v 7.942 C 71.664 49.599 71.217 50.046 70.664 50.046 z M 20.336 48.046 h 49.328 v -6.942 C 69.664 27.504 58.6 16.44 45 16.44 S 20.336 27.504 20.336 41.104 V 48.046 z" style="stroke: none; stroke-width: 1; stroke-dasharray: none; stroke-linecap: butt; stroke-linejoin: miter; stroke-miterlimit: 10; fill: rgb(0,0,0); fill-rule: nonzero; opacity: 1;" transform=" matrix(1 0 0 1 0 0) " stroke-linecap="round" />
	<circle cx="35.881" cy="30.221" r="2.431" style="stroke: none; stroke-width: 1; stroke-dasharray: none; stroke-linecap: butt; stroke-linejoin: miter; stroke-miterlimit: 10; fill: rgb(0,0,0); fill-rule: nonzero; opacity: 1;" transform="  matrix(1 0 0 1 0 0) "/>
	<circle cx="54.120999999999995" cy="30.221" r="2.431" style="stroke: none; stroke-width: 1; stroke-dasharray: none; stroke-linecap: butt; stroke-linejoin: miter; stroke-miterlimit: 10; fill: rgb(0,0,0); fill-rule: nonzero; opacity: 1;" transform="  matrix(1 0 0 1 0 0) "/>
	<path d="M 54.119 42.453 H 35.881 c -0.552 0 -1 -0.448 -1 -1 s 0.448 -1 1 -1 h 18.238 c 0.553 0 1 0.448 1 1 S 54.672 42.453 54.119 42.453 z" style="stroke: none; stroke-width: 1; stroke-dasharray: none; stroke-linecap: butt; stroke-linejoin: miter; stroke-miterlimit: 10; fill: rgb(0,0,0); fill-rule: nonzero; opacity: 1;" transform=" matrix(1 0 0 1 0 0) " stroke-linecap="round" />
	<path d="M 45 16.44 c -0.552 0 -1 -0.448 -1 -1 V 7.078 c 0 -0.552 0.448 -1 1 -1 s 1 0.448 1 1 v 8.362 C 46 15.992 45.552 16.44 45 16.44 z" style="stroke: none; stroke-width: 1; stroke-dasharray: none; stroke-linecap: butt; stroke-linejoin: miter; stroke-miterlimit: 10; fill: rgb(0,0,0); fill-rule: nonzero; opacity: 1;" transform=" matrix(1 0 0 1 0 0) " stroke-linecap="round" />
	<circle cx="44.999" cy="4.039" r="3.039" style="stroke: none; stroke-width: 1; stroke-dasharray: none; stroke-linecap: butt; stroke-linejoin: miter; stroke-miterlimit: 10; fill: rgb(252,207,63); fill-rule: nonzero; opacity: 1;" transform="  matrix(1 0 0 1 0 0) "/>
	<path d="M 45 8.078 c -2.227 0 -4.039 -1.812 -4.039 -4.039 S 42.773 0 45 0 c 2.228 0 4.039 1.812 4.039 4.039 S 47.228 8.078 45 8.078 z M 45 2 c -1.125 0 -2.039 0.915 -2.039 2.039 S 43.875 6.078 45 6.078 c 1.124 0 2.039 -0.915 2.039 -2.039 S 46.124 2 45 2 z" style="stroke: none; stroke-width: 1; stroke-dasharray: none; stroke-linecap: butt; stroke-linejoin: miter; stroke-miterlimit: 10; fill: rgb(0,0,0); fill-rule: nonzero; opacity: 1;" transform=" matrix(1 0 0 1 0 0) " stroke-linecap="round" />
	<path d="M 45 83.652 c -14.702 0 -26.664 -11.961 -26.664 -26.663 v -7.943 c 0 -0.553 0.448 -1 1 -1 h 51.328 c 0.553 0 1 0.447 1 1 v 7.943 C 71.664 71.691 59.702 83.652 45 83.652 z M 20.336 50.046 v 6.943 c 0 13.6 11.064 24.663 24.664 24.663 s 24.664 -11.063 24.664 -24.663 v -6.943 H 20.336 z" style="stroke: none; stroke-width: 1; stroke-dasharray: none; stroke-linecap: butt; stroke-linejoin: miter; stroke-miterlimit: 10; fill: rgb(0,0,0); fill-rule: nonzero; opacity: 1;" transform=" matrix(1 0 0 1 0 0) " stroke-linecap="round" />
	<circle cx="62.993" cy="81.32300000000001" r="7.673" style="stroke: none; stroke-width: 1; stroke-dasharray: none; stroke-linecap: butt; stroke-linejoin: miter; stroke-miterlimit: 10; fill: rgb(252,207,63); fill-rule: nonzero; opacity: 1;" transform="  matrix(1 0 0 1 0 0) "/>
	<circle cx="27.012999999999998" cy="81.32300000000001" r="7.673" style="stroke: none; stroke-width: 1; stroke-dasharray: none; stroke-linecap: butt; stroke-linejoin: miter; stroke-miterlimit: 10; fill: rgb(252,207,63); fill-rule: nonzero; opacity: 1;" transform="  matrix(1 0 0 1 0 0) "/>
	<path d="M 62.99 90 c -4.782 0 -8.673 -3.891 -8.673 -8.673 c 0 -4.783 3.891 -8.674 8.673 -8.674 c 4.783 0 8.674 3.891 8.674 8.674 C 71.664 86.109 67.773 90 62.99 90 z M 62.99 74.653 c -3.68 0 -6.673 2.994 -6.673 6.674 S 59.311 88 62.99 88 s 6.674 -2.993 6.674 -6.673 S 66.67 74.653 62.99 74.653 z" style="stroke: none; stroke-width: 1; stroke-dasharray: none; stroke-linecap: butt; stroke-linejoin: miter; stroke-miterlimit: 10; fill: rgb(0,0,0); fill-rule: nonzero; opacity: 1;" transform=" matrix(1 0 0 1 0 0) " stroke-linecap="round" />
	<path d="M 27.01 90 c -4.783 0 -8.673 -3.891 -8.673 -8.673 c 0 -4.783 3.891 -8.674 8.673 -8.674 c 4.782 0 8.673 3.891 8.673 8.674 C 35.683 86.109 31.792 90 27.01 90 z M 27.01 74.653 c -3.68 0 -6.673 2.994 -6.673 6.674 S 23.33 88 27.01 88 c 3.679 0 6.673 -2.993 6.673 -6.673 S 30.689 74.653 27.01 74.653 z" style="stroke: none; stroke-width: 1; stroke-dasharray: none; stroke-linecap: butt; stroke-linejoin: miter; stroke-miterlimit: 10; fill: rgb(0,0,0); fill-rule: nonzero; opacity: 1;" transform=" matrix(1 0 0 1 0 0) " stroke-linecap="round" />
	<circle cx="62.991" cy="81.331" r="2.431" style="stroke: none; stroke-width: 1; stroke-dasharray: none; stroke-linecap: butt; stroke-linejoin: miter; stroke-miterlimit: 10; fill: rgb(0,0,0); fill-rule: nonzero; opacity: 1;" transform="  matrix(1 0 0 1 0 0) "/>
	<circle cx="27.011" cy="81.331" r="2.431" style="stroke: none; stroke-width: 1; stroke-dasharray: none; stroke-linecap: butt; stroke-linejoin: miter; stroke-miterlimit: 10; fill: rgb(0,0,0); fill-rule: nonzero; opacity: 1;" transform="  matrix(1 0 0 1 0 0) "/>
	<rect x="11.11" y="48.05" rx="0" ry="0" width="8.22" height="2" style="stroke: none; stroke-width: 1; stroke-dasharray: none; stroke-linecap: butt; stroke-linejoin: miter; stroke-miterlimit: 10; fill: rgb(0,0,0); fill-rule: nonzero; opacity: 1;" transform=" matrix(1 0 0 1 0 0) "/>
	<path d="M 4.743 56.62 c -0.552 0 -1 -0.447 -1 -1 s 0.448 -1 1 -1 c 3.074 0 5.574 -2.501 5.574 -5.574 s -2.5 -5.574 -5.574 -5.574 c -0.552 0 -1 -0.448 -1 -1 s 0.448 -1 1 -1 c 4.176 0 7.574 3.397 7.574 7.574 C 12.317 53.223 8.919 56.62 4.743 56.62 z" style="stroke: none; stroke-width: 1; stroke-dasharray: none; stroke-linecap: butt; stroke-linejoin: miter; stroke-miterlimit: 10; fill: rgb(0,0,0); fill-rule: nonzero; opacity: 1;" transform=" matrix(1 0 0 1 0 0) " stroke-linecap="round" />
	<rect x="70.66" y="48.05" rx="0" ry="0" width="8.22" height="2" style="stroke: none; stroke-width: 1; stroke-dasharray: none; stroke-linecap: butt; stroke-linejoin: miter; stroke-miterlimit: 10; fill: rgb(0,0,0); fill-rule: nonzero; opacity: 1;" transform=" matrix(1 0 0 1 0 0) "/>
	<path d="M 85.258 56.62 c -4.177 0 -7.575 -3.397 -7.575 -7.574 c 0 -4.176 3.398 -7.574 7.575 -7.574 c 0.553 0 1 0.448 1 1 s -0.447 1 -1 1 c -3.074 0 -5.575 2.5 -5.575 5.574 s 2.501 5.574 5.575 5.574 c 0.553 0 1 0.447 1 1 S 85.811 56.62 85.258 56.62 z" style="stroke: none; stroke-width: 1; stroke-dasharray: none; stroke-linecap: butt; stroke-linejoin: miter; stroke-miterlimit: 10; fill: rgb(0,0,0); fill-rule: nonzero; opacity: 1;" transform=" matrix(1 0 0 1 0 0) " stroke-linecap="round" />
</g>
</g>
</svg>